<?xml version="1.0" encoding="iso-8859-1"?>
<!-- Generator: Adobe Illustrator 19.0.0, SVG Export Plug-In . SVG Version: 6.00 Build 0)  -->
<svg version="1.1" id="Layer_1" xmlns="http://www.w3.org/2000/svg" xmlns:xlink="http://www.w3.org/1999/xlink" x="0px" y="0px"
	 viewBox="0 0 512 512" style="enable-background:new 0 0 512 512;" xml:space="preserve">
<circle style="fill:#273B7A;" cx="256" cy="256" r="256"/>
<path style="fill:#121149;" d="M330.352,501.019c89.014-26.977,157.527-101.116,176.43-193.348L369.778,170.667L267.062,299.96
	l-1.581,21.261l-37.926,77.002L330.352,501.019z"/>
<path style="fill:#FEE187;" d="M366.33,187.044c-2.322,0-4.591,0.238-6.785,0.677l10.233-17.055H142.222l85.333,142.222v85.333
	h56.889v-85.333l48.874-81.458C337.587,245.626,350.763,256,366.33,256c19.011,0,34.478-15.467,34.478-34.478
	S385.341,187.044,366.33,187.044z M366.33,243.933c-12.357,0-22.411-10.054-22.411-22.411s10.054-22.411,22.411-22.411
	s22.411,10.054,22.411,22.411S378.687,243.933,366.33,243.933z"/>
<path style="fill:#FFC61B;" d="M366.33,187.044c-2.322,0-4.591,0.238-6.785,0.677l10.233-17.055H256.576v227.556h27.869v-85.333
	l48.874-81.458C337.587,245.626,350.763,256,366.33,256c19.011,0,34.478-15.467,34.478-34.478S385.341,187.044,366.33,187.044z
	 M366.33,243.933c-12.357,0-22.411-10.054-22.411-22.411s10.054-22.411,22.411-22.411s22.411,10.054,22.411,22.411
	S378.687,243.933,366.33,243.933z"/>
<g>
</g>
<g>
</g>
<g>
</g>
<g>
</g>
<g>
</g>
<g>
</g>
<g>
</g>
<g>
</g>
<g>
</g>
<g>
</g>
<g>
</g>
<g>
</g>
<g>
</g>
<g>
</g>
<g>
</g>
</svg>
